<svg width="18" height="19" viewBox="0 0 18 19" fill="none" xmlns="http://www.w3.org/2000/svg">
    <path d="M17.2538 18.0019C17.0588 18.0019 16.8713 17.9269 16.7213 17.7844L0.221328 1.28438C-0.0711719 0.991882 -0.0711719 0.519382 0.221328 0.226882C0.513828 -0.0656177 0.986328 -0.0656177 1.27883 0.226882L17.7788 16.7269C18.0713 17.0194 18.0713 17.4919 17.7788 17.7844C17.6288 17.9344 17.4413 18.0019 17.2463 18.0019H17.2538Z" fill="#8C8C8C"/>
    <path d="M0.753828 18.0019C0.558828 18.0019 0.371328 17.9269 0.221328 17.7844C-0.0711719 17.4919 -0.0711719 17.0194 0.221328 16.7269L16.7213 0.219375C17.0138 -0.073125 17.4863 -0.073125 17.7788 0.219375C18.0713 0.511875 18.0713 0.984375 17.7788 1.27687L1.28633 17.7844C1.13633 17.9344 0.948828 18.0019 0.753828 18.0019Z" fill="#8C8C8C"/>
</svg>
