<svg width="16" height="16" viewBox="0 0 16 16" fill="none" xmlns="http://www.w3.org/2000/svg">
<path d="M14.6943 16H1.26557C1.09806 15.9987 0.932447 15.9646 0.778189 15.8995C0.623932 15.8345 0.484051 15.7399 0.366534 15.6211C0.249017 15.5023 0.156166 15.3616 0.0932831 15.207C0.0303998 15.0525 -0.00128433 14.8871 3.98564e-05 14.7204V6.49316C0.00104312 6.29919 0.0456575 6.10791 0.130611 5.93334C0.215215 5.75799 0.338876 5.60414 0.492192 5.48349L7.21157 0.265229C7.43239 0.0933678 7.70464 0 7.98495 0C8.26527 0 8.53752 0.0933678 8.75834 0.265229L16 5.74341L15.4275 6.49316L8.17579 1.00498C8.12195 0.96113 8.05452 0.937169 7.98495 0.937169C7.91538 0.937169 7.84796 0.96113 7.79412 1.00498L1.07474 6.22325C1.0337 6.25532 1.0006 6.29633 0.977965 6.34311C0.955331 6.3899 0.943769 6.44123 0.944168 6.49316V14.7204C0.942829 14.7638 0.950082 14.8069 0.965513 14.8475C0.980944 14.888 1.00425 14.9251 1.0341 14.9567C1.06395 14.9882 1.09976 15.0136 1.13947 15.0314C1.17919 15.0492 1.22204 15.059 1.26557 15.0603H14.6943C14.7378 15.059 14.7807 15.0492 14.8204 15.0314C14.8601 15.0136 14.8959 14.9882 14.9258 14.9567C14.9556 14.9251 14.9789 14.888 14.9943 14.8475C15.0098 14.8069 15.017 14.7638 15.0157 14.7204V9.00233H15.9598V14.7104C15.9625 14.878 15.9318 15.0444 15.8695 15.2001C15.8072 15.3558 15.7146 15.4977 15.5969 15.6176C15.4793 15.7374 15.3389 15.833 15.184 15.8986C15.0291 15.9642 14.8627 15.9987 14.6943 16Z" fill="#DC1E35"/>
</svg>
