<svg width="33" height="28" viewBox="0 0 33 28" fill="none" xmlns="http://www.w3.org/2000/svg">
<path d="M32.3206 10.007C32.3214 9.91225 32.3032 9.81833 32.2672 9.73075C32.2311 9.64316 32.1779 9.56367 32.1106 9.49697L23.6106 0.996971C23.5105 0.896508 23.383 0.827842 23.244 0.799589C23.105 0.771336 22.9608 0.784754 22.8294 0.83816C22.6981 0.891565 22.5854 0.982579 22.5055 1.09978C22.4257 1.21699 22.3822 1.35516 22.3806 1.49697V5.15697H13.8006V6.59697H23.8006V3.22697L30.5706 10.007L23.8206 16.867V13.407H10.2506V9.80697C10.2493 9.66737 10.2069 9.53125 10.1286 9.41564C10.0504 9.30003 9.93975 9.21006 9.81062 9.15697C9.72521 9.12127 9.63316 9.10422 9.54062 9.10697C9.4459 9.10618 9.35199 9.12436 9.2644 9.16043C9.17681 9.19649 9.09733 9.24972 9.03062 9.31697L0.530624 17.817C0.39872 17.95 0.324707 18.1297 0.324707 18.317C0.324707 18.5043 0.39872 18.684 0.530624 18.817L9.03062 27.317C9.12935 27.4189 9.25636 27.4889 9.39526 27.518C9.53416 27.547 9.67859 27.5338 9.8099 27.48C9.94121 27.4262 10.0534 27.3343 10.1319 27.2161C10.2105 27.0979 10.2518 26.9589 10.2506 26.817V23.157H18.8406V21.717H8.82062V25.157L2.05062 18.307L8.82062 11.447V14.907H22.3806V18.517C22.3821 18.6591 22.4256 18.7976 22.5057 18.9151C22.5858 19.0326 22.6988 19.1237 22.8306 19.177C22.9612 19.2299 23.1044 19.244 23.2428 19.2173C23.3812 19.1907 23.509 19.1246 23.6106 19.027L32.1106 10.517C32.1798 10.4517 32.2343 10.3725 32.2705 10.2846C32.3067 10.1966 32.3238 10.102 32.3206 10.007Z" fill="white"/>
</svg>
