<svg width="25" height="5" viewBox="0 0 25 5" fill="none" xmlns="http://www.w3.org/2000/svg">
    <path fill-rule="evenodd" clip-rule="evenodd" d="M2.61765 4.7353C3.78719 4.7353 4.73529 3.78719 4.73529 2.61765C4.73529 1.4481 3.78719 0.5 2.61765 0.5C1.4481 0.5 0.5 1.4481 0.5 2.61765C0.5 3.78719 1.4481 4.7353 2.61765 4.7353ZM22.3824 4.7353C23.5519 4.7353 24.5 3.78719 24.5 2.61765C24.5 1.4481 23.5519 0.5 22.3824 0.5C21.2128 0.5 20.2647 1.4481 20.2647 2.61765C20.2647 3.78719 21.2128 4.7353 22.3824 4.7353ZM14.6176 2.61765C14.6176 3.78719 13.6695 4.7353 12.5 4.7353C11.3305 4.7353 10.3824 3.78719 10.3824 2.61765C10.3824 1.4481 11.3305 0.5 12.5 0.5C13.6695 0.5 14.6176 1.4481 14.6176 2.61765Z" fill="white"/>
</svg>
