<svg width="27" height="27" viewBox="0 0 27 27" fill="none" xmlns="http://www.w3.org/2000/svg">
<path d="M12.9648 14.5935V13.1822C12.7508 13.1842 12.5385 13.1425 12.3402 13.0597C12.1419 12.9768 11.9616 12.8544 11.8095 12.6994C11.6575 12.5445 11.5369 12.3601 11.4545 12.1569C11.3722 11.9537 11.3298 11.7358 11.3298 11.5156H9.95752C9.95751 11.9211 10.0354 12.3226 10.1867 12.697C10.338 13.0714 10.5598 13.4114 10.8392 13.6974C11.1187 13.9834 11.4503 14.2098 11.8151 14.3636C12.1799 14.5174 12.5706 14.5955 12.9648 14.5935Z" fill="#DC1E35"/>
<path d="M20.3811 18.3137L19.1841 19.0043L20.0308 20.6559L18.0162 20.746L16.9067 22.4576L14.3228 17.7581C16.219 17.4279 17.9401 16.417 19.1802 14.9052C20.4203 13.3933 21.0993 11.4783 21.0965 9.50028C21.088 7.57363 20.4341 5.70886 19.245 4.2201C18.0559 2.73135 16.4042 1.70961 14.5682 1.32702C12.7322 0.94442 10.8241 1.22435 9.16527 2.11964C7.50648 3.01493 6.19842 4.47088 5.46144 6.24219C4.8324 7.78164 4.66587 9.47952 4.98329 11.1172C5.30071 12.7548 6.08755 14.2572 7.24246 15.4309L7.63662 15.8063L4.32275 21.9471L7.8556 22.1573L9.8118 25.1602L13.3155 18.7941L16.8191 25.1602L18.7753 22.1573L22.3228 21.9921L20.3811 18.3137ZM6.73151 12.2179C6.16583 10.844 6.04394 9.31966 6.38378 7.86921C6.72362 6.41876 7.50724 5.11884 8.61928 4.16077C9.73133 3.20271 11.1131 2.63713 12.5611 2.54728C14.0091 2.45743 15.4469 2.84806 16.6629 3.66167C17.8789 4.47528 18.8088 5.66889 19.3157 7.0668C19.8226 8.4647 19.8798 9.99306 19.4788 11.4269C19.0778 12.8607 18.2399 14.1243 17.0883 15.0316C15.9367 15.9389 14.5323 16.442 13.0819 16.4669C11.7322 16.49 10.4066 16.0979 9.27512 15.3408C8.14363 14.5838 7.25789 13.4963 6.73151 12.2179ZM9.72421 22.4576L8.61472 20.7309L6.58553 20.6559L8.70232 16.6471C9.77794 17.3256 10.9926 17.7369 12.2498 17.8482L9.72421 22.4576Z" fill="#DC1E35"/>
</svg>
