<svg width="24" height="24" viewBox="0 0 24 24" fill="none" xmlns="http://www.w3.org/2000/svg">
<g clip-path="url(#clip0)">
<path d="M6.17014 6.6325L4.01389 3.7575L2.92139 4.57687L5.63826 8.19938C5.7044 8.28034 5.78774 8.34557 5.88222 8.39032C5.9767 8.43508 6.07997 8.45824 6.18451 8.45813C6.29061 8.45869 6.39536 8.43426 6.49026 8.38681C6.58516 8.33936 6.66755 8.27022 6.73076 8.185L11.6326 1.42875L10.5258 0.609375L6.17014 6.6325Z" fill="#919191"/>
<path d="M23.0896 0.609375H14.4646C14.2752 0.616809 14.096 0.697318 13.9647 0.834008C13.8334 0.970698 13.7601 1.15294 13.7603 1.3425V9.9675C13.7677 10.1569 13.8482 10.3361 13.9849 10.4674C14.1216 10.5987 14.3038 10.672 14.4934 10.6719H23.1184C23.3078 10.6644 23.487 10.5839 23.6183 10.4472C23.7496 10.3106 23.8229 10.1283 23.8228 9.93875V1.31375C23.8153 1.12434 23.7348 0.94517 23.5981 0.81384C23.4614 0.68251 23.2792 0.609229 23.0896 0.609375ZM22.4715 9.32063H15.1115V1.96063H22.4715V9.32063Z" fill="#919191"/>
<path d="M23.0896 13.5465H14.4646C14.2752 13.5539 14.096 13.6344 13.9647 13.7711C13.8334 13.9078 13.7601 14.09 13.7603 14.2796V22.9046C13.7603 23.099 13.8375 23.2855 13.975 23.423C14.1125 23.5605 14.2989 23.6377 14.4934 23.6377H23.1184C23.3128 23.6377 23.4993 23.5605 23.6368 23.423C23.7743 23.2855 23.8515 23.099 23.8515 22.9046V14.2796C23.8516 14.1808 23.8317 14.0831 23.7931 13.9922C23.7545 13.9014 23.6979 13.8192 23.6267 13.7508C23.5556 13.6823 23.4713 13.6289 23.379 13.5938C23.2867 13.5587 23.1883 13.5426 23.0896 13.5465ZM22.4715 22.2577H15.1115V14.8977H22.4715V22.2577Z" fill="#919191"/>
<path d="M9.534 9.32063H2.174V1.96063H6.659V0.609375H1.55588C1.36144 0.609375 1.17497 0.686615 1.03748 0.824102C0.899994 0.96159 0.822754 1.14806 0.822754 1.3425L0.822754 9.9675C0.830187 10.1569 0.910697 10.3361 1.04739 10.4674C1.18408 10.5987 1.36632 10.672 1.55588 10.6719H10.1809C10.3703 10.6644 10.5495 10.5839 10.6808 10.4472C10.8121 10.3106 10.8854 10.1283 10.8853 9.93875V6.76188H9.534V9.32063Z" fill="#919191"/>
<path d="M10.1521 13.5469H1.52713C1.33772 13.5543 1.15855 13.6348 1.02722 13.7715C0.895889 13.9082 0.822608 14.0904 0.822754 14.28V22.905C0.830188 23.0944 0.910697 23.2736 1.04739 23.4049C1.18408 23.5362 1.36632 23.6095 1.55588 23.6094H10.1809C10.3703 23.6019 10.5495 23.5214 10.6808 23.3847C10.8121 23.2481 10.8854 23.0658 10.8853 22.8762V14.2512C10.8778 14.0618 10.7973 13.8827 10.6606 13.7513C10.5239 13.62 10.3417 13.5467 10.1521 13.5469ZM9.534 22.2581H2.174V14.8981H9.534V22.2581Z" fill="#919191"/>
</g>
<defs>
<clipPath id="clip0">
<rect width="23" height="23" fill="white" transform="translate(0.822754 0.609375)"/>
</clipPath>
</defs>
</svg>
